mtllib LeftWheel.mtl
# vertices
v -3 0 -60
v -3 -52 -30
v -3 -52 30
v -3 0 60
v -3 52 30
v -3 52 -30
v 0 0 60
v 0 -52 30
v 0 52 30
v 0 -52 -30
v 0 52 -30
v 0 0 -60
v -2 0 -62
v -2 -53.733333333333576 -31
v -2 -53.733333333333576 31
v -2 0 62
v -2 53.733333333333377 31
v -2 53.733333333333377 -31
v -1 53.733333333333377 31
v -1 0 62
v -1 -53.733333333333576 31
v -1 -53.733333333333576 -31
v -1 53.733333333333377 -31
v -1 0 -62
v -4 -2.7499999999999956 -22
v -4 -8.2500000000000249 -20.624999999999993
v -4 -13.750000000000004 -17.875
v -4 -17.875000000000004 -13.749999999999993
v -4 -20.625000000001762 -8.2499999999964757
v -4 -22 -2.750000000003638
v -4 -22 2.749999999992724
v -4 -20.625 8.249999999992724
v -4 -17.874999999996362 13.750000000003638
v -4 -13.750000000003638 17.874999999998181
v -4 -8.25 20.625
v -4 -2.75 22
v -4 2.7500000000000107 22
v -4 8.2499999999999893 20.625000000000007
v -4 13.75 17.875000000000004
v -4 17.874999999999993 13.750000000000014
v -4 20.625 8.2500000000000036
v -4 22 2.7500000000000036
v -4 22 -2.7499999999999929
v -4 20.624999999999996 -8.2500000000000036
v -4 17.875000000000004 -13.749999999999991
v -4 13.750000000000005 -17.874999999999996
v -4 8.2500000000000053 -20.625
v -4 2.7500000000000053 -22
v -3 2.7500000000000107 22
v -3 -2.75 22
v -3 -8.25 20.625
v -3 8.2499999999999893 20.625000000000007
v -3 -13.750000000003638 17.874999999998181
v -3 13.75 17.875000000000004
v -3 -17.874999999996362 13.750000000003638
v -3 17.874999999999993 13.750000000000014
v -3 -20.625 8.249999999992724
v -3 20.625 8.2500000000000036
v -3 -22 2.749999999992724
v -3 22 2.7500000000000031
v -3 -22 -2.750000000003638
v -3 22 -2.7499999999999929
v -3 -20.625000000001762 -8.2499999999964757
v -3 20.624999999999996 -8.2500000000000036
v -3 -17.875000000000004 -13.749999999999993
v -3 17.875000000000004 -13.749999999999991
v -3 -13.750000000000004 -17.875
v -3 13.750000000000005 -17.874999999999996
v -3 -8.2500000000000249 -20.624999999999993
v -3 8.2500000000000053 -20.625
v -3 -2.7499999999999956 -22
v -3 2.7500000000000053 -22

# texture coordinates
vt -2.0290601253509521 1.9301254749298096
vt 0.0014382073422893882 3.103302001953125
vt 2.0311853885650635 1.9314272403717041
vt 2.0304338932037354 -0.41362428665161133
vt -6.454752292484045e-05 -1.5868009328842163
vt -2.0298116207122803 -0.41492605209350586
vt 0 -0
vt -0.1171875 -0
vt -0.1171875 -2.03125
vt 0 -2.03125
vt 0 2.03125
vt -0.1171875 2.03125
vt 0 -1.171875
vt -0.1171875 -1.171875
vt -0.1171875 1.171875
vt 0 1.171875
vt 2.421875 -0
vt 1.2109375 -2.0989582538604736
vt -1.2109375 -2.0989582538604736
vt -2.421875 -0
vt -1.2109375 2.0989582538604736
vt 1.2109375 2.0989582538604736
vt -0.0390625 2.0989582538604736
vt -0.078125 2.0989582538604736
vt -0.078125 -0
vt -0.0390625 -0
vt -0.078125 -2.0989582538604736
vt -0.0390625 -2.0989582538604736
vt -0.0390625 -1.2109375
vt -0.078125 -1.2109375
vt -0.078125 1.2109375
vt -0.0390625 1.2109375
vt -1.2115955352783203 2.8564324378967285
vt -2.4225330352783203 0.75902712345123291
vt -1.2102506160736084 -1.3391546010971069
vt 1.2129693031311035 -1.3399311304092407
vt 2.4239068031311035 0.75747406482696533
vt 1.2116243839263916 2.8556556701660156
vt 0.8594469428062439 0.650390625
vt 0.8057360053062439 0.435546875
vt 0.6983141303062439 0.220703125
vt 0.5371813178062439 0.0595703125
vt 0.3223375678062439 -0.0478515625
vt 0.10749383270740509 -0.1015625
vt -0.10734991729259491 -0.1015625
vt -0.3221936821937561 -0.0478515625
vt -0.5370374321937561 0.0595703125
vt -0.6981702446937561 0.220703125
vt -0.8055921196937561 0.435546875
vt -0.8593030571937561 0.650390625
vt -0.8593030571937561 0.865234375
vt -0.8055921196937561 1.080078125
vt -0.6981702446937561 1.294921875
vt -0.5370374321937561 1.4560546875
vt -0.3221936821937561 1.5634765625
vt -0.10734991729259491 1.6171875
vt 0.10749383270740509 1.6171875
vt 0.3223375678062439 1.5634765625
vt 0.5371813178062439 1.4560546875
vt 0.6983141303062439 1.294921875
vt 0.8057360053062439 1.080078125
vt 0.8594469428062439 0.865234375
vt -0.54296875 0.865234375
vt -0.58203125 0.865234375
vt -0.58203125 0.650390625
vt -0.54296875 0.650390625
vt -0.58203125 0.435546875
vt -0.54296875 0.435546875
vt -0.54296875 1.0800780057907104
vt -0.58203125 1.0800780057907104
vt -0.58203125 0.86523425579071045
vt -0.54296875 0.86523425579071045
vt -0.58203125 0.220703125
vt -0.54296875 0.220703125
vt -0.54296875 1.294921875
vt -0.58203125 1.294921875
vt -0.58203125 1.080078125
vt -0.54296875 1.080078125
vt -0.54296875 0.5371813178062439
vt -0.58203125 0.5371813178062439
vt -0.58203125 0.6983141303062439
vt -0.54296875 0.6983141303062439
vt -0.54296875 -0.6981702446937561
vt -0.58203125 -0.6981702446937561
vt -0.58203125 -0.5370374321937561
vt -0.54296875 -0.5370374321937561
vt -0.54296875 -0.53703749179840088
vt -0.58203125 -0.53703749179840088
vt -0.58203125 -0.32219377160072327
vt -0.54296875 -0.32219377160072327
vt -0.54296875 -0.32219380140304565
vt -0.58203125 -0.32219380140304565
vt -0.58203125 -0.53703755140304565
vt -0.54296875 -0.53703755140304565
vt -0.54296875 -0.32219365239143372
vt -0.58203125 -0.32219365239143372
vt -0.58203125 -0.10734990239143372
vt -0.54296875 -0.10734990239143372
vt -0.54296875 -0.10734987258911133
vt -0.58203125 -0.10734987258911133
vt -0.58203125 -0.32219362258911133
vt -0.54296875 -0.32219362258911133
vt -0.54296875 -0.10734991729259491
vt -0.58203125 -0.10734991729259491
vt -0.58203125 0.10749383270740509
vt -0.54296875 0.10749383270740509
vt -0.54296875 0.10749382525682449
vt -0.58203125 0.10749382525682449
vt -0.58203125 0.3223375678062439
vt -0.54296875 0.3223375678062439
vt -0.54296875 0.32233732938766479
vt -0.58203125 0.32233732938766479
vt -0.58203125 0.10749358683824539
vt -0.54296875 0.10749358683824539
vt -0.54296875 0.32233759760856628
vt -0.58203125 0.32233759760856628
vt -0.58203125 0.53718137741088867
vt -0.54296875 0.53718137741088867
vt -0.58203125 0.69831418991088867
vt -0.54296875 0.69831418991088867
vt -0.54296875 0.22070306539535522
vt -0.58203125 0.22070306539535522
vt -0.58203125 0.43554681539535522
vt -0.54296875 0.43554681539535522

# face normals
vn -1 0 -0
vn 0 -0.49972245348957717 0.86618558604860041
vn 0 0.49972245348957717 0.86618558604860041
vn 0 -1 -0
vn 0 1 -0
vn 0 -0.49972245348957717 -0.86618558604860041
vn 0 0.49972245348957717 -0.86618558604860041
vn 1 0 -0
vn 0 0.49972245348957683 0.86618558604860052
vn 0 -0.49972245348958061 0.86618558604859841
vn 0 -0.49972245348958061 -0.86618558604859841
vn 0 0.49972245348957683 -0.86618558604860052
vn 0 0 1
vn 0 -0.24253562503633236 0.97014250014533199
vn 0 0.24253562503633236 0.97014250014533199
vn 0 -0.44721359549995793 0.89442719099991586
vn 0 0.44721359549995793 0.89442719099991586
vn 0 -0.70710678118654724 0.70710678118654779
vn 0 0.70710678118654724 0.70710678118654779
vn 0 -0.89442719099991586 0.44721359549995793
vn 0 0.89442719099991586 0.44721359549995793
vn 0 -0.97014250014533188 0.24253562503633297
vn 0 0.97014250014533188 0.24253562503633297
vn 0 -0.97014250014533188 -0.24253562503633297
vn -0 0.97014250014533188 -0.24253562503633297
vn 0 -0.89442719099991586 -0.44721359549995793
vn -0 0.89442719099991586 -0.44721359549995793
vn 0 -0.70710678118654824 -0.70710678118654702
vn -0 0.70710678118654824 -0.70710678118654702
vn 0 -0.44721359549995793 -0.89442719099991586
vn -0 0.44721359549995793 -0.89442719099991586
vn 0 -0.24253562503633297 -0.97014250014533188
vn -0 0.24253562503633297 -0.97014250014533188
vn -0 0 -1

# objects
o entity0_brush0
usemtl wood_browndark
f 1/1/1 2/2/1 3/3/1 4/4/1 5/5/1 6/6/1
usemtl wood_browndark
f 7/7/2 4/8/2 3/9/2 8/10/2
usemtl wood_browndark
f 9/11/3 5/12/3 4/8/3 7/7/3
usemtl wood_browndark
f 8/13/4 3/14/4 2/15/4 10/16/4
usemtl wood_browndark
f 11/16/5 6/15/5 5/14/5 9/13/5
usemtl wood_browndark
f 10/10/6 2/9/6 1/8/6 12/7/6
usemtl wood_browndark
f 12/7/7 1/8/7 6/12/7 11/11/7
usemtl wood_browndark
f 11/6/8 9/5/8 7/4/8 8/3/8 10/2/8 12/1/8

o entity0_brush1
usemtl wood_brownlight
f 13/17/1 14/18/1 15/19/1 16/20/1 17/21/1 18/22/1
usemtl wood_brownlight
f 19/23/9 17/24/9 16/25/9 20/26/9
usemtl wood_brownlight
f 20/26/10 16/25/10 15/27/10 21/28/10
usemtl wood_brownlight
f 21/29/4 15/30/4 14/31/4 22/32/4
usemtl wood_brownlight
f 23/32/5 18/31/5 17/30/5 19/29/5
usemtl wood_brownlight
f 22/28/11 14/27/11 13/25/11 24/26/11
usemtl wood_brownlight
f 24/26/12 13/25/12 18/24/12 23/23/12
usemtl wood_brownlight
f 23/33/8 19/34/8 20/35/8 21/36/8 22/37/8 24/38/8

o entity0_brush2
usemtl metal1
f 25/39/1 26/40/1 27/41/1 28/42/1 29/43/1 30/44/1 31/45/1 32/46/1 33/47/1 34/48/1 35/49/1 36/50/1 37/51/1 38/52/1 39/53/1 40/54/1 41/55/1 42/56/1 43/57/1 44/58/1 45/59/1 46/60/1 47/61/1 48/62/1
usemtl metal1
f 49/63/13 37/64/13 36/65/13 50/66/13
usemtl metal1
f 50/66/14 36/65/14 35/67/14 51/68/14
usemtl metal1
f 52/69/15 38/70/15 37/71/15 49/72/15
usemtl metal1
f 51/68/16 35/67/16 34/73/16 53/74/16
usemtl metal1
f 54/75/17 39/76/17 38/77/17 52/78/17
usemtl metal1
f 53/79/18 34/80/18 33/81/18 55/82/18
usemtl metal1
f 56/83/19 40/84/19 39/85/19 54/86/19
usemtl metal1
f 55/87/20 33/88/20 32/89/20 57/90/20
usemtl metal1
f 58/91/21 41/92/21 40/93/21 56/94/21
usemtl metal1
f 57/95/22 32/96/22 31/97/22 59/98/22
usemtl metal1
f 60/99/23 42/100/23 41/101/23 58/102/23
usemtl metal1
f 59/103/4 31/104/4 30/105/4 61/106/4
usemtl metal1
f 62/106/5 43/105/5 42/104/5 60/103/5
usemtl metal1
f 61/107/24 30/108/24 29/109/24 63/110/24
usemtl metal1
f 64/111/25 44/112/25 43/113/25 62/114/25
usemtl metal1
f 63/115/26 29/116/26 28/117/26 65/118/26
usemtl metal1
f 66/79/27 45/80/27 44/109/27 64/110/27
usemtl metal1
f 65/118/28 28/117/28 27/119/28 67/120/28
usemtl metal1
f 68/120/29 46/119/29 45/117/29 66/118/29
usemtl metal1
f 67/121/30 27/122/30 26/123/30 69/124/30
usemtl metal1
f 70/78/31 47/77/31 46/76/31 68/75/31
usemtl metal1
f 69/68/32 26/67/32 25/65/32 71/66/32
usemtl metal1
f 72/63/33 48/64/33 47/77/33 70/78/33
usemtl metal1
f 71/66/34 25/65/34 48/64/34 72/63/34
usemtl metal1
f 70/61/8 68/60/8 66/59/8 64/58/8 62/57/8 60/56/8 58/55/8 56/54/8 54/53/8 52/52/8 49/51/8 50/50/8 51/49/8 53/48/8 55/47/8 57/46/8 59/45/8 61/44/8 63/43/8 65/42/8 67/41/8 69/40/8 71/39/8 72/62/8

