mtllib SpecialTable.mtl
# vertices
v -4 0 -4
v -4 0 4
v -4 112 4
v -4 112 -4
v 4 112 4
v 4 0 4
v 4 0 -4
v 4 112 -4
v -32 112 -48
v -32 112 48
v -32 116 48
v -32 116 -48
v 32 116 48
v 32 112 48
v 32 112 -48
v 32 116 -48
v -18.28324034536854 137.04008420720857 -24
v -20.35379270618796 129.31267759689763 -24
v -20.35379270618796 129.31267759689763 -0
v 18 119.03580981460436 -0
v 18 119.03580981460375 -24
v 20.070552360821182 126.76321642491433 -24
v -21 116 -24
v -21 116 -0
v -21 126.9009991441726 -0
v -21 126.9009991441726 -24
v -20.353792706191598 129.31267759688853 -24
v -20.353792706190287 129.31267759689206 -0
v 18 119.03580981459783 -0
v 18 116 -0
v 18 116 -24
v 18 119.03580981459694 -24
v 10.883261574873368 120.94273412835948 -0
v 10.883261574873369 120.94273412835948 24
v 15.061479512218973 128.10539344952338 24
v 18 119.03580981460254 24
v 18 119.03580981460296 -0
v 20.07055236081942 126.76321642491166 24
v 10.883261574872449 120.94273412835901 -0
v 8 116 -0
v 8 116 24
v 10.883261574870655 120.94273412835476 24
v 18 119.03580981459784 24
v 18 116 24
v 18 116 -0
v 18 119.03580981460074 -0
v -20.35379270618796 129.31267759689763 -0
v -20.35379270618796 129.31267759689763 24
v -18.283240345368849 137.04008420720604 24
v -12.591194509416088 127.23269567890571 24
v -12.591194509416074 127.23269567890537 -0
v -13.03333560375529 135.63337647135035 24
v -21 116 -0
v -21 116 24
v -21 126.9009991441726 24
v -21 126.9009991441726 -0
v -20.353792706191598 129.31267759688853 -0
v -20.353792706190287 129.31267759689206 24
v -12.591194509415743 127.23269567889906 24
v -12 116 24
v -12 116 -0
v -12.591194509415566 127.23269567889574 -0
v -12.591194509416482 127.2326956789002 -0
v -12 116 -0
v -12 116 24
v -12.591194509416432 127.23269567889926 24
v 10.88326157487321 120.94273412835408 24
v 8 116 24
v 8 116 -0
v 10.883261574873409 120.94273412835443 -0
v -35 115 -46
v -35 115 -44
v -35 116 -44
v -35 116 -46
v -34.500000000007276 116.5 -44
v -34.500000000007276 116.5 -46
v -32 112 -44
v -32 112 -46
v -32 115 -44
v -33.5 116.5 -44
v -33.5 116.5 -46
v -32 115 -46
v -35 115 44
v -35 115 46
v -35 116 46
v -35 116 44
v -34.500000000007276 116.5 46
v -34.500000000007276 116.5 44
v -32 112 46
v -32 112 44
v -32 115 46
v -33.5 116.5 46
v -33.5 116.5 44
v -32 115 44

# texture coordinates
vt -0.134765625 -0.033203125
vt 0.021484375 -0.033203125
vt 0.021484375 2.154296875
vt -0.134765625 2.154296875
vt 0.115234375 2.154296875
vt -0.041015625 2.154296875
vt -0.041015625 -0.033203125
vt 0.115234375 -0.033203125
vt -0.115234375 -0.021484375
vt 0.041015625 -0.021484375
vt 0.041015625 0.134765625
vt -0.115234375 0.134765625
vt 0.115234375 0.134765625
vt -0.041015625 0.134765625
vt -0.041015625 -0.021484375
vt 0.115234375 -0.021484375
vt -0.115234375 -0.033203125
vt 0.041015625 -0.033203125
vt 0.041015625 2.154296875
vt -0.115234375 2.154296875
vt 0.134765625 2.154296875
vt -0.021484375 2.154296875
vt -0.021484375 -0.033203125
vt 0.134765625 -0.033203125
vt -0.994140625 3.044921875
vt 0.880859375 3.044921875
vt 0.880859375 3.123046875
vt -0.994140625 3.123046875
vt 0.662109375 3.123046875
vt -0.587890625 3.123046875
vt -0.587890625 3.044921875
vt 0.662109375 3.044921875
vt -0.662109375 -0.880859375
vt 0.587890625 -0.880859375
vt 0.587890625 0.994140625
vt -0.662109375 0.994140625
vt 0.662109375 0.994140625
vt -0.587890625 0.994140625
vt -0.587890625 -0.880859375
vt 0.662109375 -0.880859375
vt -0.662109375 3.044921875
vt 0.587890625 3.044921875
vt 0.587890625 3.123046875
vt -0.662109375 3.123046875
vt 0.994140625 3.123046875
vt -0.880859375 3.123046875
vt -0.880859375 3.044921875
vt 0.994140625 3.044921875
vt -0.525390625 3.2792966365814209
vt -0.525390625 3.1230466365814209
vt -0.056640625 3.1230466365814209
vt 0.42200732231140137 0.056640625
vt -0.35351550579071045 0.056640625
vt -0.35351550579071045 0.525390625
vt 0.42200732231140137 0.525390625
vt -0.42200732231140137 3.1230466365814209
vt 0.35351550579071045 3.1230466365814209
vt 0.35351550579071045 3.2792966365814209
vt -0.42200732231140137 3.2792966365814209
vt 0.42200732231140137 1.4648423194885254
vt -0.35351550579071045 1.4648423194885254
vt -0.35351550579071045 0.97073650360107422
vt 0.42200732231140137 0.97073650360107422
vt 0.525390625 3.1230466365814209
vt 0.525390625 3.2792966365814209
vt 0.056640625 3.1230466365814209
vt -0.525390625 2.8613719940185547
vt -0.056640625 2.8613719940185547
vt -0.056640625 3.074282169342041
vt -0.525390625 3.074282169342041
vt -0.525390625 3.0742819309234619
vt -0.056640625 3.0742819309234619
vt 0.705078125 2.9206650257110596
vt -0.044019371271133423 3.1213850975036621
vt 0.705078125 2.8613719940185547
vt -0.03515625 -0
vt 0.041015625 -0
vt 0.041015625 0.046875
vt -0.03515625 0.046875
vt -0.43735355138778687 3.0657739639282227
vt 0.29841023683547974 2.868626594543457
vt 0.35351550579071045 3.0742819309234619
vt -0.042391173541545868 0.046875
vt -0.11994345486164093 0.046875
vt -0.11994345486164093 -0
vt -0.042391173541545868 -0
vt 0.056640625 3.0637538433074951
vt 0.525390625 3.0637538433074951
vt 0.525390625 3.123046875
vt 0.056640625 3.123046875
vt -0.056640625 2.9338481426239014
vt 0.412109375 2.9338481426239014
vt 0.412109375 3.0958058834075928
vt 0.27810519933700562 0.525390625
vt 0.27810519933700562 0.056640625
vt -0.32072269916534424 3.2792966365814209
vt -0.27810519933700562 3.1230466365814209
vt 0.42200732231140137 -0.029263675212860107
vt 0.27810519933700562 -0.029263675212860107
vt 0.32072269916534424 -0.52336955070495605
vt 0.42200732231140137 -0.52336955070495605
vt -0.412109375 3.2792966365814209
vt -0.412109375 3.1230466365814209
vt -0.056640625 2.8220860958099365
vt 0.412109375 2.8220860958099365
vt -0.24869614839553833 3.0152232646942139
vt -0.015625 0.046875
vt -0.015625 -0
vt 0.509765625 2.8613719940185547
vt 0.56607931852340698 2.9579098224639893
vt -0.056781388819217682 -0
vt -0.056781388819217682 0.046875
vt -0.412109375 3.0637538433074951
vt -0.412109375 3.123046875
vt 0.412109375 3.1230466365814209
vt 0.412109375 3.2792966365814209
vt -0.19655388593673706 0.525390625
vt -0.19655388593673706 0.056640625
vt 0.24736112356185913 3.2792966365814209
vt 0.19655388593673706 3.1230466365814209
vt -0.19655388593673706 -0.029263675212860107
vt -0.35351550579071045 -0.029263675212860107
vt -0.35351550579071045 -0.52336955070495605
vt -0.24736112356185913 -0.52336955070495605
vt -0.412109375 3.2808613777160645
vt 0.056640625 3.2808613777160645
vt -0.412109375 3.4451642036437988
vt 0.412109375 2.8613719940185547
vt 0.412109375 3.074282169342041
vt 0.412109375 3.0742819309234619
vt 0.12861859798431396 2.9141221046447754
vt 0.0234375 0.046875
vt 0.0234375 -0
vt 0.119140625 2.8613719940185547
vt 0.10759386420249939 3.0807604789733887
vt -0.10424729436635971 -0
vt -0.10424729436635971 0.046875
vt -0.412109375 3.292633056640625
vt -0.412109375 3.0729408264160156
vt 0.056640625 3.0729408264160156
vt 0.056640625 3.292633056640625
vt -0.056640625 3.0902512073516846
vt -0.056640625 2.8705589771270752
vt 0.412109375 2.8705589771270752
vt 0.412109375 3.0902512073516846
vt 0.27810519933700562 0.97073650360107422
vt -0.19655388593673706 0.97073650360107422
vt -0.19655388593673706 0.50198650360107422
vt 0.27810519933700562 0.50198650360107422
vt 0.056640625 2.8338577747344971
vt 0.056640625 2.9456198215484619
vt -0.412109375 2.9456198215484619
vt -0.412109375 2.8338577747344971
vt -1.158203125 -1.9012231826782227
vt -1.119140625 -1.9012231826782227
vt -1.119140625 -1.9207544326782227
vt -1.158203125 -1.9207544326782227
vt -1.158203125 -0.92075455188751221
vt -1.119140625 -0.92075455188751221
vt -1.119140625 -0.93456530570983887
vt -1.158203125 -0.93456530570983887
vt -1.119140625 -1.8183592557907104
vt -1.119140625 -1.9012233018875122
vt -1.158203125 -1.9012233018875122
vt -1.158203125 -1.8183592557907104
vt 0.376953125 -1.876953125
vt 0.40625 -1.90625
vt 0.42578125 -1.90625
vt 0.435546875 -1.896484375
vt 0.435546875 -1.876953125
vt 0.376953125 -1.818359375
vt -1.158203125 1.0459034442901611
vt -1.158203125 1.0654346942901611
vt -1.119140625 1.0654346942901611
vt -1.119140625 1.0459034442901611
vt -1.158203125 2.0044713020324707
vt -1.158203125 2.0459034442901611
vt -1.119140625 2.0459034442901611
vt -1.119140625 2.0044713020324707
vt -0.955078125 3.986328125
vt -0.994140625 3.986328125
vt -0.994140625 4.103515625
vt -0.955078125 4.103515625
vt 0.841796875 -1.9012231826782227
vt 0.880859375 -1.9012231826782227
vt 0.880859375 -1.9207544326782227
vt 0.841796875 -1.9207544326782227
vt 0.841796875 -0.92075461149215698
vt 0.880859375 -0.92075461149215698
vt 0.880859375 -0.93456536531448364
vt 0.841796875 -0.93456536531448364
vt 0.880859375 -1.8183592557907104
vt 0.880859375 -1.9012233018875122
vt 0.841796875 -1.9012233018875122
vt 0.841796875 -1.8183592557907104
vt 0.841796875 1.0459034442901611
vt 0.841796875 1.0654346942901611
vt 0.880859375 1.0654346942901611
vt 0.880859375 1.0459034442901611
vt 0.841796875 2.0044715404510498
vt 0.841796875 2.0459036827087402
vt 0.880859375 2.0459036827087402
vt 0.880859375 2.0044715404510498
vt 0.044921875 3.986328125
vt 0.005859375 3.986328125
vt 0.005859375 4.103515625
vt 0.044921875 4.103515625

# face normals
vn -1 0 -0
vn 0 0 1
vn 0 -1 -0
vn 0 1 -0
vn 0 0 -1
vn 1 0 -0
vn -0.96592582628906665 0.25881904510252712 -0
vn -0.25881904510251386 -0.9659258262890702 -0
vn 0.24553730530614418 0.91635769855608085 0.31622776601683827
vn 0.96592582628906831 -0.25881904510252046 -0
vn -0.9659258262890692 0.25881904510251791 -0
vn 0.25881904510251774 0.96592582628906909 -0
vn -0.86377890089843345 0.50387102552408625 -0
vn 0.24553730530614418 0.91635769855608085 -0.31622776601683827
vn 0.99861782933250975 0.052558833122763673 -0
vn -0.99861782933250975 -0.052558833122763673 -0
vn 0.86377890089843345 -0.50387102552408625 -0
vn -0.70710678119169235 0.70710678118140258 -0
vn -0.70710678118654757 -0.70710678118654757 -0
vn 0.70710678118654413 0.7071067811865509 -0

# objects
o entity0_brush0
usemtl metal1
f 1/1/1 2/2/1 3/3/1 4/4/1
usemtl metal1
f 5/5/2 3/6/2 2/7/2 6/8/2
usemtl metal1
f 6/9/3 2/10/3 1/11/3 7/12/3
usemtl metal1
f 8/13/4 4/14/4 3/15/4 5/16/4
usemtl metal1
f 7/17/5 1/18/5 4/19/5 8/20/5
usemtl metal1
f 8/21/6 5/22/6 6/23/6 7/24/6

o entity0_brush1
usemtl metal1
f 9/25/1 10/26/1 11/27/1 12/28/1
usemtl metal1
f 13/29/2 11/30/2 10/31/2 14/32/2
usemtl metal1
f 14/33/3 10/34/3 9/35/3 15/36/3
usemtl metal1
f 16/37/4 12/38/4 11/39/4 13/40/4
usemtl metal1
f 15/41/5 9/42/5 12/43/5 16/44/5
usemtl metal1
f 16/45/6 13/46/6 14/47/6 15/48/6

o entity0_brush2
usemtl metal1
f 17/49/7 18/50/7 19/51/7
usemtl metal1
f 20/52/8 19/53/8 18/54/8 21/55/8
usemtl metal1
f 21/56/5 18/57/5 17/58/5 22/59/5
usemtl metal1
f 22/60/9 17/61/9 19/62/9 20/63/9
usemtl metal1
f 21/64/10 22/65/10 20/66/10

o entity0_brush3
usemtl metal1
f 23/67/1 24/68/1 25/69/1 26/70/1
usemtl metal1
f 27/50/11 26/71/11 25/72/11 28/51/11
usemtl metal1
f 29/73/2 28/74/2 25/69/2 24/68/2 30/75/2
usemtl metal1
f 30/76/3 24/77/3 23/78/3 31/79/3
usemtl metal1
f 31/80/5 23/81/5 26/82/5 27/57/5 32/56/5
usemtl metal1
f 32/83/12 27/84/12 28/85/12 29/86/12
usemtl metal1
f 30/87/6 31/88/6 32/89/6 29/90/6

o entity0_brush4
usemtl metal1
f 33/91/13 34/92/13 35/93/13
usemtl metal1
f 36/55/8 34/94/8 33/95/8 37/52/8
usemtl metal1
f 38/59/2 35/96/2 34/97/2 36/56/2
usemtl metal1
f 37/98/14 33/99/14 35/100/14 38/101/14
usemtl metal1
f 38/102/10 36/103/10 37/66/10

o entity0_brush5
usemtl metal1
f 39/91/13 40/104/13 41/105/13 42/92/13
usemtl metal1
f 43/56/2 42/97/2 41/106/2 44/80/2
usemtl metal1
f 44/79/3 41/107/3 40/108/3 45/76/3
usemtl metal1
f 45/75/5 40/109/5 39/110/5 46/73/5
usemtl metal1
f 46/86/12 39/111/12 42/112/12 43/83/12
usemtl metal1
f 44/113/6 45/87/6 46/90/6 43/114/6

o entity0_brush6
usemtl metal1
f 47/51/7 48/115/7 49/116/7
usemtl metal1
f 50/117/8 48/54/8 47/53/8 51/118/8
usemtl metal1
f 52/119/2 49/58/2 48/57/2 50/120/2
usemtl metal1
f 51/121/14 47/122/14 49/123/14 52/124/14
usemtl metal1
f 50/125/15 51/126/15 52/127/15

o entity0_brush7
usemtl metal1
f 53/68/1 54/128/1 55/129/1 56/69/1
usemtl metal1
f 57/51/11 56/72/11 55/130/11 58/115/11
usemtl metal1
f 59/120/2 58/57/2 55/82/2 54/81/2 60/131/2
usemtl metal1
f 60/132/3 54/78/3 53/77/3 61/133/3
usemtl metal1
f 61/134/5 53/68/5 56/69/5 57/74/5 62/135/5
usemtl metal1
f 62/136/12 57/85/12 58/84/12 59/137/12
usemtl metal1
f 59/138/15 60/139/15 61/140/15 62/141/15

o entity0_brush8
usemtl metal1
f 63/142/16 64/143/16 65/144/16 66/145/16
usemtl metal1
f 67/97/2 66/120/2 65/131/2 68/106/2
usemtl metal1
f 68/107/3 65/132/3 64/133/3 69/108/3
usemtl metal1
f 69/109/5 64/134/5 63/135/5 70/110/5
usemtl metal1
f 70/146/12 63/147/12 66/148/12 67/149/12
usemtl metal1
f 69/150/17 70/151/17 67/152/17 68/153/17

o entity0_brush9
usemtl metal1
f 71/154/1 72/155/1 73/156/1 74/157/1
usemtl metal1
f 74/158/18 73/159/18 75/160/18 76/161/18
usemtl metal1
f 77/162/19 72/163/19 71/164/19 78/165/19
usemtl metal1
f 79/166/2 80/167/2 75/168/2 73/169/2 72/170/2 77/171/2
usemtl metal1
f 81/172/4 76/173/4 75/174/4 80/175/4
usemtl metal1
f 78/171/5 71/170/5 74/169/5 76/168/5 81/167/5 82/166/5
usemtl metal1
f 82/176/20 81/177/20 80/178/20 79/179/20
usemtl metal1
f 77/180/6 78/181/6 82/182/6 79/183/6

o entity0_brush10
usemtl metal1
f 83/184/1 84/185/1 85/186/1 86/187/1
usemtl metal1
f 86/188/18 85/189/18 87/190/18 88/191/18
usemtl metal1
f 89/192/19 84/193/19 83/194/19 90/195/19
usemtl metal1
f 91/166/2 92/167/2 87/168/2 85/169/2 84/170/2 89/171/2
usemtl metal1
f 93/196/4 88/197/4 87/198/4 92/199/4
usemtl metal1
f 90/171/5 83/170/5 86/169/5 88/168/5 93/167/5 94/166/5
usemtl metal1
f 94/200/20 93/201/20 92/202/20 91/203/20
usemtl metal1
f 89/204/6 90/205/6 94/206/6 91/207/6

