mtllib Table.mtl
# vertices
v -4 0 -4
v -4 0 4
v -4 112 4
v -4 112 -4
v 4 112 4
v 4 0 4
v 4 0 -4
v 4 112 -4
v -32 112 -48
v -32 112 48
v -32 116 48
v -32 116 -48
v 32 116 48
v 32 112 48
v 32 112 -48
v 32 116 -48
v -18.28324034536854 137.04008420720857 -24
v -20.35379270618796 129.31267759689763 -24
v -20.35379270618796 129.31267759689763 -0
v 18 119.03580981460436 -0
v 18 119.03580981460375 -24
v 20.070552360821182 126.76321642491433 -24
v -21 116 -24
v -21 116 -0
v -21 126.9009991441726 -0
v -21 126.9009991441726 -24
v -20.353792706191598 129.31267759688853 -24
v -20.353792706190287 129.31267759689206 -0
v 18 119.03580981459783 -0
v 18 116 -0
v 18 116 -24
v 18 119.03580981459694 -24
v -20.35379270618796 129.31267759689763 -0
v -20.35379270618796 129.31267759689763 24
v -18.283240345368849 137.04008420720604 24
v 18 119.03580981460436 24
v 18 119.03580981460375 -0
v 20.070552360815782 126.76321642491348 24
v -21 116 -0
v -21 116 24
v -21 126.9009991441726 24
v -21 126.9009991441726 -0
v -20.353792706191598 129.31267759688853 -0
v -20.353792706190287 129.31267759689206 24
v 18 119.03580981459783 24
v 18 116 24
v 18 116 -0
v 18 119.03580981459694 -0

# texture coordinates
vt -0.134765625 -0.033203125
vt 0.021484375 -0.033203125
vt 0.021484375 2.154296875
vt -0.134765625 2.154296875
vt 0.115234375 2.154296875
vt -0.041015625 2.154296875
vt -0.041015625 -0.033203125
vt 0.115234375 -0.033203125
vt -0.115234375 -0.021484375
vt 0.041015625 -0.021484375
vt 0.041015625 0.134765625
vt -0.115234375 0.134765625
vt 0.115234375 0.134765625
vt -0.041015625 0.134765625
vt -0.041015625 -0.021484375
vt 0.115234375 -0.021484375
vt -0.115234375 -0.033203125
vt 0.041015625 -0.033203125
vt 0.041015625 2.154296875
vt -0.115234375 2.154296875
vt 0.134765625 2.154296875
vt -0.021484375 2.154296875
vt -0.021484375 -0.033203125
vt 0.134765625 -0.033203125
vt -0.994140625 3.044921875
vt 0.880859375 3.044921875
vt 0.880859375 3.123046875
vt -0.994140625 3.123046875
vt 0.662109375 3.123046875
vt -0.587890625 3.123046875
vt -0.587890625 3.044921875
vt 0.662109375 3.044921875
vt -0.662109375 -0.880859375
vt 0.587890625 -0.880859375
vt 0.587890625 0.994140625
vt -0.662109375 0.994140625
vt 0.662109375 0.994140625
vt -0.587890625 0.994140625
vt -0.587890625 -0.880859375
vt 0.662109375 -0.880859375
vt -0.662109375 3.044921875
vt 0.587890625 3.044921875
vt 0.587890625 3.123046875
vt -0.662109375 3.123046875
vt 0.994140625 3.123046875
vt -0.880859375 3.123046875
vt -0.880859375 3.044921875
vt 0.994140625 3.044921875
vt -0.525390625 3.2792966365814209
vt -0.525390625 3.1230466365814209
vt -0.056640625 3.1230466365814209
vt 0.42200732231140137 0.056640625
vt -0.35351550579071045 0.056640625
vt -0.35351550579071045 0.525390625
vt 0.42200732231140137 0.525390625
vt -0.42200732231140137 3.1230466365814209
vt 0.35351550579071045 3.1230466365814209
vt 0.35351550579071045 3.2792966365814209
vt -0.42200732231140137 3.2792966365814209
vt 0.42200732231140137 1.4648423194885254
vt -0.35351550579071045 1.4648423194885254
vt -0.35351550579071045 0.97073650360107422
vt 0.42200732231140137 0.97073650360107422
vt 0.525390625 3.1230466365814209
vt 0.525390625 3.2792966365814209
vt 0.056640625 3.1230466365814209
vt -0.525390625 2.8613719940185547
vt -0.056640625 2.8613719940185547
vt -0.056640625 3.074282169342041
vt -0.525390625 3.074282169342041
vt -0.525390625 3.0742819309234619
vt -0.056640625 3.0742819309234619
vt 0.705078125 2.9206650257110596
vt -0.044019371271133423 3.1213850975036621
vt 0.705078125 2.8613719940185547
vt -0.03515625 -0
vt 0.041015625 -0
vt 0.041015625 0.046875
vt -0.03515625 0.046875
vt -0.43735355138778687 3.0657739639282227
vt 0.29841023683547974 2.868626594543457
vt 0.35351550579071045 3.0742819309234619
vt -0.042391173541545868 0.046875
vt -0.11994345486164093 0.046875
vt -0.11994345486164093 -0
vt -0.042391173541545868 -0
vt 0.056640625 3.0637538433074951
vt 0.525390625 3.0637538433074951
vt 0.525390625 3.123046875
vt 0.056640625 3.123046875
vt 0.412109375 3.1230466365814209
vt 0.412109375 3.2792966365814209
vt 0.42200732231140137 -0.029263675212860107
vt -0.35351550579071045 -0.029263675212860107
vt -0.35351550579071045 -0.52336955070495605
vt 0.42200732231140137 -0.52336955070495605
vt -0.412109375 3.2792966365814209
vt -0.412109375 3.1230466365814209
vt 0.412109375 2.8613719940185547
vt 0.412109375 3.074282169342041
vt 0.412109375 3.0742819309234619
vt -0.412109375 3.0637538433074951
vt -0.412109375 3.123046875

# face normals
vn -1 0 -0
vn 0 0 1
vn 0 -1 -0
vn 0 1 -0
vn 0 0 -1
vn 1 0 -0
vn -0.96592582628906665 0.25881904510252712 -0
vn -0.25881904510251386 -0.9659258262890702 -0
vn 0.24553730530614418 0.91635769855608085 0.31622776601683827
vn 0.96592582628906831 -0.25881904510252046 -0
vn -0.9659258262890692 0.25881904510251791 -0
vn 0.25881904510251774 0.96592582628906909 -0
vn 0.24553730530614418 0.91635769855608085 -0.31622776601683827

# objects
o entity0_brush0
usemtl metal1
f 1/1/1 2/2/1 3/3/1 4/4/1
usemtl metal1
f 5/5/2 3/6/2 2/7/2 6/8/2
usemtl metal1
f 6/9/3 2/10/3 1/11/3 7/12/3
usemtl metal1
f 8/13/4 4/14/4 3/15/4 5/16/4
usemtl metal1
f 7/17/5 1/18/5 4/19/5 8/20/5
usemtl metal1
f 8/21/6 5/22/6 6/23/6 7/24/6

o entity0_brush1
usemtl metal1
f 9/25/1 10/26/1 11/27/1 12/28/1
usemtl metal1
f 13/29/2 11/30/2 10/31/2 14/32/2
usemtl metal1
f 14/33/3 10/34/3 9/35/3 15/36/3
usemtl metal1
f 16/37/4 12/38/4 11/39/4 13/40/4
usemtl metal1
f 15/41/5 9/42/5 12/43/5 16/44/5
usemtl metal1
f 16/45/6 13/46/6 14/47/6 15/48/6

o entity0_brush2
usemtl metal1
f 17/49/7 18/50/7 19/51/7
usemtl metal1
f 20/52/8 19/53/8 18/54/8 21/55/8
usemtl metal1
f 21/56/5 18/57/5 17/58/5 22/59/5
usemtl metal1
f 22/60/9 17/61/9 19/62/9 20/63/9
usemtl metal1
f 21/64/10 22/65/10 20/66/10

o entity0_brush3
usemtl metal1
f 23/67/1 24/68/1 25/69/1 26/70/1
usemtl metal1
f 27/50/11 26/71/11 25/72/11 28/51/11
usemtl metal1
f 29/73/2 28/74/2 25/69/2 24/68/2 30/75/2
usemtl metal1
f 30/76/3 24/77/3 23/78/3 31/79/3
usemtl metal1
f 31/80/5 23/81/5 26/82/5 27/57/5 32/56/5
usemtl metal1
f 32/83/12 27/84/12 28/85/12 29/86/12
usemtl metal1
f 30/87/6 31/88/6 32/89/6 29/90/6

o entity0_brush4
usemtl metal1
f 33/51/7 34/91/7 35/92/7
usemtl metal1
f 36/55/8 34/54/8 33/53/8 37/52/8
usemtl metal1
f 38/59/2 35/58/2 34/57/2 36/56/2
usemtl metal1
f 37/93/13 33/94/13 35/95/13 38/96/13
usemtl metal1
f 38/97/10 36/98/10 37/66/10

o entity0_brush5
usemtl metal1
f 39/68/1 40/99/1 41/100/1 42/69/1
usemtl metal1
f 43/51/11 42/72/11 41/101/11 44/91/11
usemtl metal1
f 45/56/2 44/57/2 41/82/2 40/81/2 46/80/2
usemtl metal1
f 46/79/3 40/78/3 39/77/3 47/76/3
usemtl metal1
f 47/75/5 39/68/5 42/69/5 43/74/5 48/73/5
usemtl metal1
f 48/86/12 43/85/12 44/84/12 45/83/12
usemtl metal1
f 46/102/6 47/87/6 48/90/6 45/103/6

