mtllib CaseTopCollider.mtl
# vertices
v -32 164 -48
v -32 164 48
v -32 166 48
v -32 166 -48
v 32 166 48
v 32 164 48
v 32 164 -48
v 32 166 -48

# texture coordinates
vt -51.71875 -14.09375
vt -51.71875 15.90625
vt -52.34375 15.90625
vt -52.34375 -14.09375
vt 52.34375 -10.40625
vt 52.34375 9.59375
vt 51.71875 9.59375
vt 51.71875 -10.40625
vt 15.90625 -10.40625
vt 15.90625 9.59375
vt -14.09375 9.59375
vt -14.09375 -10.40625
vt 14.09375 -10.40625
vt 14.09375 9.59375
vt -15.90625 9.59375
vt -15.90625 -10.40625
vt -51.71875 -10.40625
vt -51.71875 9.59375
vt -52.34375 9.59375
vt -52.34375 -10.40625

# face normals
vn -1 -0 0
vn -0 -0 1
vn -0 -1 0
vn 0 1 -0
vn 0 0 -1
vn 1 0 -0

# objects
o entity1_brush0
usemtl __TB_empty
f 1/1/1 2/2/1 3/3/1 4/4/1
usemtl __TB_empty
f 5/5/2 3/6/2 2/7/2 6/8/2
usemtl __TB_empty
f 6/9/3 2/10/3 1/11/3 7/12/3
usemtl __TB_empty
f 8/13/4 4/14/4 3/15/4 5/16/4
usemtl __TB_empty
f 7/17/5 1/18/5 4/19/5 8/20/5
usemtl __TB_empty
f 8/4/6 5/3/6 6/2/6 7/1/6

