mtllib CaseFrontCollider.mtl
# vertices
v 30 116 -48
v 30 116 48
v 30 164 48
v 30 164 -48
v 32 164 48
v 32 116 48
v 32 116 -48
v 32 164 -48

# texture coordinates
vt -15.90625 36.96875
vt 14.09375 36.96875
vt 14.09375 51.96875
vt -15.90625 51.96875
vt 10.59375 51.96875
vt 9.96875 51.96875
vt 9.96875 36.96875
vt 10.59375 36.96875
vt 10.59375 -14.09375
vt 9.96875 -14.09375
vt 9.96875 15.90625
vt 10.59375 15.90625
vt -10.59375 36.96875
vt -9.96875 36.96875
vt -9.96875 51.96875
vt -10.59375 51.96875
vt 15.90625 51.96875
vt -14.09375 51.96875
vt -14.09375 36.96875
vt 15.90625 36.96875

# face normals
vn -1 0 -0
vn 0 0 1
vn -0 -1 0
vn 0 1 -0
vn 0 0 -1
vn 1 0 -0

# objects
o entity1_brush0
usemtl __TB_empty
f 1/1/1 2/2/1 3/3/1 4/4/1
usemtl __TB_empty
f 5/5/2 3/6/2 2/7/2 6/8/2
usemtl __TB_empty
f 6/9/3 2/10/3 1/11/3 7/12/3
usemtl __TB_empty
f 8/12/4 4/11/4 3/10/4 5/9/4
usemtl __TB_empty
f 7/13/5 1/14/5 4/15/5 8/16/5
usemtl __TB_empty
f 8/17/6 5/18/6 6/19/6 7/20/6

