mtllib wheel-collider.mtl
# vertices
v -0.34615384615388006 0.04069552906573648 -63.457854074539036
v -0.34615384615388006 -0.040695529063853542 -63.45785407453976
v -0.34615384615387729 -55 -31.727084843769262
v -0.34615384615387657 -55 31.734453617762483
v -0.34615384615387895 -0.16269178210735791 63.394788278999791
v -0.34615384615388134 55 31.593688633341728
v -0.34615384615388206 55 -31.72708484377219
v 9.1730769231509761 -0.040695529062032776 63.465222848535632
v 12.346153846010477 0.040695529062065056 63.465222848535632
v 9.1730769229810321 55 31.734453617765176
v 12.34615384596378 -0.040695529062032769 63.465222848535632
v 12.34615384596378 -55 31.734453617762483
v 12.346153845963272 55 31.734453617765176
v 12.34615384596378 -55 -31.727084843769262
v 12.346153845963272 55 -31.72708484377219
v 12.34615384596378 -0.040695529063852036 -63.45785407453976
v 12.34615384596378 0.040695529065735973 -63.457854074539036

# texture coordinates
vt -8.7500009536743164 -16.3125
vt -8.7708263397216797 -16.30047607421875
vt -18.14582633972168 -0.062499336898326874
vt -8.7708263397216797 16.17547607421875
vt 9.9375534057617188 16.17547607421875
vt 19.354204177856445 -0.11054071038961411
vt 9.9999990463256836 -16.3125
vt 0.013801911845803261 0.94165647029876709
vt 0.0276943389326334 -0.93953567743301392
vt 0.30894437432289124 -0.93537527322769165
vt 0.40268412232398987 -0.93259960412979126
vt 0.29508265852928162 0.94165647029876709
vt 0.375 0.0012023679446429014
vt 0.28125 -0.0012023679446429014
vt 0.375 -0.0012023679446429014
vt 3.75 -2.0656734704971313e-06
vt 2.8125 -2.0656734704971313e-06
vt 7.4505805969238281e-09 -0.041622493416070938
vt 7.4505805969238281e-09 -18.750001907348633
vt 3.75 -18.750001907348633
vt 3.75 -18.781246185302734
vt 2.8125 -18.781246185302734
vt 3.75 -0.031247297301888466
vt -0.375 -0.93760883808135986
vt 0 -0.93760883808135986
vt 0 0.93739116191864014
vt -0.375 0.93739116191864014
vt 0.375 0.93739116191864014
vt 0 -0.93344986438751221
vt 0.28125 -0.93760883808135986
vt 0.375 -0.93760883808135986
vt 3.75 -18.75
vt 7.4505805969238281e-09 -18.75
vt 7.4505805969238281e-09 -1.1119991540908813e-06
vt 3.75 -1.1119991540908813e-06
vt -0.375 -0.0012023679446429014
vt 0 -0.0012023679446429014
vt 0 0.0012023679446429014
vt -0.375 0.0012023679446429014
vt 3.75 -0.031250156462192535
vt 7.4505805969238281e-09 -0.031250156462192535
vt 7.4505805969238281e-09 -18.78125
vt 3.75 -18.78125
vt 18.77082633972168 0.12500028312206268
vt 9.3958263397216797 16.36297607421875
vt 9.3750009536743164 16.375
vt -9.3749990463256836 16.375
vt -18.75 0.13702395558357239
vt -9.3749990463256836 -16.1009521484375
vt -9.3541736602783203 -16.11297607421875
vt 9.3958263397216797 -16.11297607421875

# face normals
vn -1 -0 -0
vn -0.012809974649890676 0.49940418371276341 0.86627441716794207
vn 0 -0 1
vn 0 -0.49999999999999639 0.86602540378444071
vn 0 0.49999999999999811 0.86602540378443971
vn 0 -1 0
vn 0 1 -0
vn 0 -0.50000000000000655 -0.86602540378443493
vn 3.1156115861385694e-28 8.9045849399828137e-12 -1
vn 1.9681226345921734e-17 0.49999999999998046 -0.86602540378444981
vn 1 0 -0

# objects
o entity1_brush0
usemtl __TB_empty
f 1/1/1 2/2/1 3/3/1 4/4/1 5/5/1 6/6/1 7/7/1
usemtl __TB_empty
f 6/8/2 5/9/2 8/10/2 9/11/2 10/12/2
usemtl __TB_empty
f 9/13/3 8/14/3 11/15/3
usemtl __TB_empty
f 11/16/4 8/17/4 5/18/4 4/19/4 12/20/4
usemtl __TB_empty
f 13/21/5 10/22/5 9/23/5
usemtl __TB_empty
f 12/24/6 4/25/6 3/26/6 14/27/6
usemtl __TB_empty
f 15/28/7 7/26/7 6/29/7 10/30/7 13/31/7
usemtl __TB_empty
f 14/32/8 3/33/8 2/34/8 16/35/8
usemtl __TB_empty
f 16/36/9 2/37/9 1/38/9 17/39/9
usemtl __TB_empty
f 17/40/10 1/41/10 7/42/10 15/43/10
usemtl __TB_empty
f 14/44/11 16/45/11 17/46/11 15/47/11 13/48/11 9/49/11 11/50/11 12/51/11

